<svg id="Layer_1" data-name="Layer 1" xmlns="http://www.w3.org/2000/svg" width="20" height="20" viewBox="0 0 20 20"><path d="M10.5634,6.1008a4.0045,4.0045,0,0,0-4.33,1.9817,6.1759,6.1759,0,0,0-.3379,2.7626,4.5845,4.5845,0,0,0,.0973,1.3282,1.9488,1.9488,0,0,0,.9237,1.0341,5.6464,5.6464,0,0,0,2.626.8852,5.6439,5.6439,0,0,0,2.6872-.5959c1.8764-.8736,2.1067-2.9914,1.6523-4.8a4.1128,4.1128,0,0,0-1.2367-2.2139,3.4773,3.4773,0,0,0-2.94-.4472C9.0716,6.14,9.34,7.1036,9.9709,7a2.5249,2.5249,0,0,1,1.9913.2094,2.7806,2.7806,0,0,1,.8591,1.409c.3745,1.195.5592,2.9222-.6186,3.7487a4.5773,4.5773,0,0,1-2.0608.72,4.05,4.05,0,0,1-2.0831-.3926,4.5835,4.5835,0,0,1-.8347-.48c-.32-.2434-.3214-.53-.3256-.9077a11.1417,11.1417,0,0,1,.0606-2.2867,2.8738,2.8738,0,0,1,3.3384-1.9542c.6289.12.8983-.8433.2659-.9643Z"/></svg>