<svg id="Layer_1" data-name="Layer 1" xmlns="http://www.w3.org/2000/svg" width="20" height="20" viewBox="0 0 20 20"><path d="M9.4892,3.4268C6.7274,7.64,4.16,12.1764.6151,15.7954c-.5124.5231-.0015,1.6093.7648,1.3136,2.6105-1.0073,5.7322-.521,8.4735-.5259q4.4726-.008,8.9411-.2164c.6264-.0287,1.1062-.8729.5558-1.3418a20.122,20.122,0,0,1-4.0345-5.6071A34.967,34.967,0,0,0,10.97,3.4257c-.68-.7522-1.7885.3622-1.1116,1.1116a34.82,34.82,0,0,1,4.3814,6.1644,19.48,19.48,0,0,0,3.9994,5.4348l.5558-1.3418q-4.6429.2126-9.2919.2168c-2.7856,0-5.8832-.4437-8.5406.5817l.7647,1.3137c3.64-3.7164,6.2841-8.36,9.12-12.6867.5562-.8485-.8043-1.637-1.3573-.7934Z"/></svg>