<svg id="Layer_1" data-name="Layer 1" xmlns="http://www.w3.org/2000/svg" width="20" height="20" viewBox="0 0 20 20"><path d="M11.9605,1.527c.1817,5.65-.0383,11.3005-.2642,16.946L12.55,18.12a42.4188,42.4188,0,0,1-3.6081-3.5782c-1.1884-1.2242-2.646-2.1544-3.8-3.4023l-.1012.7853A14.0238,14.0238,0,0,0,7.6558,9.806q1.3042-1.1838,2.5684-2.41c1.7613-1.7036,3.4893-3.4422,5.3416-5.0485.4871-.4224-.2227-1.1271-.7071-.7071C13.0662,3.1945,11.39,4.8727,9.6874,6.5236Q8.4218,7.7508,7.1218,8.9415a13.8593,13.8593,0,0,1-2.5864,2.1193.5056.5056,0,0,0-.1012.7853c1.1544,1.2479,2.6119,2.178,3.8,3.4023a42.4188,42.4188,0,0,0,3.6081,3.5782.5073.5073,0,0,0,.8536-.3536c.2259-5.6455.4459-11.2958.2642-16.946-.0206-.6419-1.0207-.6448-1,0Z"/></svg>