<svg id="Layer_1" data-name="Layer 1" xmlns="http://www.w3.org/2000/svg" width="20" height="20" viewBox="0 0 20 20"><path d="M7.118,6.8853c-.76.66-1.5466,1.2979-2.2809,1.9856A6.4847,6.4847,0,0,0,3.4824,11.05,7.5958,7.5958,0,0,0,2.52,13.4544a2.0138,2.0138,0,0,0,1.019,1.7524c1.4414.91,3.1455.2753,4.4937-.4795,1.7035-.9536,3.3649-1.9929,4.98-3.0894a59.0458,59.0458,0,0,0,5.23-3.984c.49-.4191-.22-1.1237-.7071-.7071a59.44,59.44,0,0,1-10.2,7.0237,3.7526,3.7526,0,0,1-2.7777.6023,1.5061,1.5061,0,0,1-.94-.6661c-.2613-.5191.1638-1.1238.3811-1.5971a8.9544,8.9544,0,0,1,1.4-2.5928C6.14,8.9518,7.0212,8.29,7.8251,7.5924,8.312,7.17,7.6022,6.465,7.118,6.8853Z"/></svg>