<svg id="Layer_1" data-name="Layer 1" xmlns="http://www.w3.org/2000/svg" width="20" height="20" viewBox="0 0 20 20"><path d="M8.1233,15.3609a12.8744,12.8744,0,0,0,2.12-4.5257c.2559-1.44-.0536-3.1466-1.4987-3.8449-.5612-.2712-1.521-.4407-1.79.308A2.8069,2.8069,0,0,0,7.4008,9.259,4.6109,4.6109,0,0,0,8.736,10.7808a2.8411,2.8411,0,0,0,1.9174.6915c.8072-.13,1.3251-1.1358,1.7633-1.7364q.9225-1.2644,1.7448-2.5971c.34-.5485-.5248-1.0513-.8635-.5047q-1.03,1.6631-2.212,3.2246c-.1309.1721-.2988.4831-.4979.59-.2043.11-.4939-.0435-.6869-.1332A3.5819,3.5819,0,0,1,8.73,9.4322a3.4529,3.4529,0,0,1-.7122-1.27,3.7977,3.7977,0,0,0-.0995-.4039c-.0151-.0344.008-.1808-.0561-.0513-.0566.1144-.0219.0155.0574.057a3.5558,3.5558,0,0,1,.6642.2983c.9233.7238.8445,2.05.5685,3.0668A13.8488,13.8488,0,0,1,7.26,14.8562c-.3476.5439.5176,1.046.8635.5047Z"/></svg>