<svg id="Layer_1" data-name="Layer 1" xmlns="http://www.w3.org/2000/svg" width="20" height="20" viewBox="0 0 20 20"><path d="M3.8532,8.0828,3.7181,3.564l-.9318.2523c.6384.84,1.6962.6776,2.6442.6714l3.8528-.0253,7.83-.0515-.4318-.7524a7.1809,7.1809,0,0,0-.9081,2.945c-.1605,1.2988-.245,2.6108-.3328,3.9161q-.2717,4.0353-.2824,8.0815a.5.5,0,0,0,1,0q.0138-3.7953.25-7.5848c.0781-1.2343.1722-2.4679.2893-3.6991a7.1529,7.1529,0,0,1,.8475-3.154.5042.5042,0,0,0-.4317-.7523l-6.8357.0449-3.3557.0221-1.74.0114c-.3768.0025-1.2722.1644-1.5321-.1777-.2748-.3617-.9481-.2932-.9317.2524l.1351,4.5188c.0192.6421,1.0193.6448,1,0Z"/><path d="M15.6758,19.1624a.5.5,0,0,0,0-1,.5.5,0,0,0,0,1Z"/></svg>