<svg id="Layer_1" data-name="Layer 1" xmlns="http://www.w3.org/2000/svg" width="20" height="20" viewBox="0 0 20 20"><path d="M6.0105,8.9731a5.6437,5.6437,0,0,1,2.741-3.1985,4.8856,4.8856,0,0,1,2.07-.589c.3895-.0122.8448.0357,1.0187.4447a2.9093,2.9093,0,0,1,.0444,1.3832,52.1653,52.1653,0,0,1-1.2448,5.5592L9.3519,18.0968c-.1459.6261.818.8934.9643.2659L11.94,11.3975c.2757-1.1829.5895-2.3648.817-3.558a4.3456,4.3456,0,0,0-.0783-2.7746c-.8387-1.5357-3.2464-.78-4.4315-.1538A6.6681,6.6681,0,0,0,5.0462,8.7072c-.2032.6122.7622.8747.9643.2659Z"/></svg>