<svg id="Layer_1" data-name="Layer 1" xmlns="http://www.w3.org/2000/svg" width="20" height="20" viewBox="0 0 20 20"><path d="M10.9789,1.27C9.5035,3.7749,8.14,6.3113,6.9009,8.942c-1.2261,2.6033-2.42,5.2248-3.8792,7.7086a.5039.5039,0,0,0,.4318.7523,113.231,113.231,0,0,1,12.3075-.1937.5043.5043,0,0,0,.4317-.7523l-1.2353-2.151a.5.5,0,0,0-.8634.5047l1.2352,2.151.4318-.7524a113.231,113.231,0,0,0-12.3075.1937l.4317.7524C5.3447,14.6715,6.5383,12.05,7.7644,9.4467c1.239-2.6306,2.6026-5.1672,4.078-7.6722a.5.5,0,0,0-.8635-.5047Z"/></svg>