<svg id="Layer_1" data-name="Layer 1" xmlns="http://www.w3.org/2000/svg" width="20" height="20" viewBox="0 0 20 20"><path d="M1.7,15.7165a44.2172,44.2172,0,0,0,4.8634-5.17c1.396-1.7879,2.663-3.6691,3.9253-5.5523H9.6252a14.087,14.087,0,0,0,1.9387,2.5035q1.1092,1.279,2.24,2.5389,2.3429,2.61,4.7777,5.1342c.4473.4643,1.1539-.2433.7071-.7072Q16.94,12.025,14.6728,9.5093,13.54,8.251,12.43,6.9732a13.9662,13.9662,0,0,1-1.9409-2.4838.5055.5055,0,0,0-.8635,0C8.3691,6.3633,7.1142,8.244,5.7169,10.017a44.0822,44.0822,0,0,1-4.724,4.9924c-.4727.4388.2357,1.1447.7071.7071Z"/></svg>