<svg id="Layer_1" data-name="Layer 1" xmlns="http://www.w3.org/2000/svg" width="20" height="20" viewBox="0 0 20 20"><path d="M6.1627.6739Q6.11,10.113,6.27,19.5512H7.4323c-.0325-1.7776-.009-3.5554.08-5.3312q.0317-.6308.0739-1.2609a3.0578,3.0578,0,0,1,.2154-1.3638c.3545-.5545,1.4358-.7566,2.0484-.8558a3.3187,3.3187,0,0,1,2.2212.2915c.615.3991.4278,1.931.4636,2.6055q.1444,2.7209.1531,5.4462a.5815.5815,0,0,0,1.1624,0q-.0155-3.4932-.2452-6.98c-.063-.94-.1361-1.6553-1.05-2.1263a4.5742,4.5742,0,0,0-2.63-.4127,6.3615,6.3615,0,0,0-2.4335.7528,2.4424,2.4424,0,0,0-1.0393,2.223c-.1743,2.3325-.2258,4.6738-.1831,7.0121a.5816.5816,0,0,0,1.1625,0q-.16-9.4377-.1071-18.8773a.5816.5816,0,0,0-1.1625,0Z"/></svg>