<svg id="Layer_1" data-name="Layer 1" xmlns="http://www.w3.org/2000/svg" width="20" height="20" viewBox="0 0 20 20"><path d="M4.7094,19.7053c2.432-2.5088,4.6441-5.0336,5.892-8.3473a32.6448,32.6448,0,0,0,1.5805-5.2047,6.6672,6.6672,0,0,0-.4559-4.7508A2.48,2.48,0,0,0,8.5931.2124c-1.2937.6385-1.68,2.2848-1.8081,3.593a12.6178,12.6178,0,0,0,.83,5.3223,26.1468,26.1468,0,0,0,2.0961,4.884,18.2888,18.2888,0,0,0,2.5437,3.089,27.9284,27.9284,0,0,0,2.99,2.7791c.726.563,1.7558-.4523,1.0216-1.0216a29.5027,29.5027,0,0,1-4.21-4.1166A18.5585,18.5585,0,0,1,8.7956,8.1031a10.27,10.27,0,0,1-.5307-4.5345,3.2415,3.2415,0,0,1,.72-1.8823c.6371-.5688,1.3087.0576,1.6151.6623.6775,1.3368.3145,3.0293-.0349,4.4019a40.7538,40.7538,0,0,1-1.3007,4.0744c-1.159,3.13-3.2882,5.4982-5.5765,7.8588-.6475.6679.3731,1.6908,1.0217,1.0216Z"/></svg>