<svg id="Layer_1" data-name="Layer 1" xmlns="http://www.w3.org/2000/svg" width="20" height="20" viewBox="0 0 20 20"><path d="M12.5419,18.479,12.5355,3.5161a.5043.5043,0,0,0-.9317-.2524,23.7306,23.7306,0,0,1-3.23,3.42L4.8311,10.153c-.2866.2807-.0913.901.3536.8535.937-.1,1.6557.6909,2.3148,1.2473L9.8516,14.24l4.61,3.8923c.4888.4127,1.2-.2913.7071-.7071L9.9942,13.0559C9.16,12.3514,8.3365,11.63,7.4885,10.9421a3.1659,3.1659,0,0,0-2.3038-.9356l.3535.8536L9.2535,7.2215a23.59,23.59,0,0,0,3.2137-3.4531l-.9317-.2523.0064,14.9629a.5.5,0,0,0,1,0Z"/></svg>