<svg id="Layer_1" data-name="Layer 1" xmlns="http://www.w3.org/2000/svg" width="20" height="20" viewBox="0 0 20 20"><path d="M2.6713,2.495l15.2941-.0091-.2523-.9317Q15.6464,3.0275,13.6225,4.56q-.9659.7323-1.9216,1.4779c-.5009.3905-1.1854.768-1.4175,1.3925a8.0323,8.0323,0,0,0-.2747,2.0971q-.1,1.2665-.1055,2.5378c-.0037.8251.0377,1.6494.0343,2.4744a6.95,6.95,0,0,1-.2611,2.6554c-.27.58.5919,1.0882.8635.5047a5.4371,5.4371,0,0,0,.3549-1.9453c.0546-.7944.0426-1.5879.0249-2.3832a37.0488,37.0488,0,0,1,.1787-4.8075,1.5823,1.5823,0,0,1,.3253-1.043,8.8817,8.8817,0,0,1,.889-.7015q.95-.7418,1.9109-1.4688,1.9755-1.4953,3.9942-2.9324a.5044.5044,0,0,0-.2524-.9317L2.6713,1.495a.5.5,0,0,0,0,1Z"/></svg>