<svg id="Layer_1" data-name="Layer 1" xmlns="http://www.w3.org/2000/svg" width="20" height="20" viewBox="0 0 20 20"><path d="M13.7052,18.8194c-.0434-5.6339-.12-11.2675-.1968-16.901a.5066.5066,0,0,0-.8536-.3536L5.2463,7.7031l.7071.7071c.11-.0924.6915.02.86.0258l1.3032.0429,2.4881.0819a.5051.5051,0,0,0,.3536-.8536A12.558,12.558,0,0,1,9.0574,5.0246,17.7933,17.7933,0,0,0,7.0032,2.3831c-.4407-.4709-1.1467.2373-.7071.7071a16.8419,16.8419,0,0,1,2.12,2.7992,11.11,11.11,0,0,0,1.8357,2.5249l.3535-.8535-3.08-.1014c-.7219-.0238-1.6794-.2576-2.2783.2437-.4948.4141.2155,1.1144.7071.7071l7.4085-6.1383-.8535-.3535c.0769,5.6335.1534,11.2671.1968,16.901a.5.5,0,0,0,1,0Z"/></svg>