<svg id="Layer_1" data-name="Layer 1" xmlns="http://www.w3.org/2000/svg" width="20" height="20" viewBox="0 0 20 20"><path d="M6.0126,8.5441A17.7949,17.7949,0,0,1,8.4347,5.6314l2.7639-2.9808L10.345,2.297c-.1156,1.3172,1.2223,2.2848,2.08,3.0813Q14.07,6.9062,15.844,8.285l.3536-.8535-4.7227.38a.5113.5113,0,0,0-.5.5q-.0507,4.8093.15,9.6159c.0268.6412,1.027.6445,1,0q-.2009-4.8054-.15-9.6159l-.5.5,4.7227-.38c.3771-.03.7288-.5606.3535-.8536q-1.4973-1.1689-2.91-2.44Q12.958,4.52,12.2974,3.8784c-.4471-.4343-1.0121-.9014-.9524-1.5814a.5047.5047,0,0,0-.8535-.3536L7.56,5.1049a17.8074,17.8074,0,0,0-2.411,2.9345.5.5,0,0,0,.8635.5047Z"/></svg>