<svg id="Layer_1" data-name="Layer 1" xmlns="http://www.w3.org/2000/svg" width="20" height="20" viewBox="0 0 20 20"><path d="M9.3736.3428a82.1553,82.1553,0,0,0-7.41,8.9749.5028.5028,0,0,0,.4318.7523q7.5957-.497,15.209-.6069c.2913-.0042.61-.3218.4822-.6329a7.1,7.1,0,0,0-2.34-2.7664,19.1532,19.1532,0,0,1-3.0631-3.01c-.2768-.3488-.8609-.05-.8535.3535q.144,7.953-.3776,15.8967c-.0423.6425.9579.64,1,0q.5215-7.9371.3776-15.8967l-.8536.3536a17.6413,17.6413,0,0,0,2.77,2.7755,7.0817,7.0817,0,0,1,2.376,2.56l.4821-.6329q-7.6112.11-15.209.6069l.4317.7524A80.3412,80.3412,0,0,1,10.0807,1.05c.444-.4658-.262-1.1741-.7071-.7071Z"/></svg>