<svg id="Layer_1" data-name="Layer 1" xmlns="http://www.w3.org/2000/svg" width="20" height="20" viewBox="0 0 20 20"><path d="M1.4587,13.066a3.8647,3.8647,0,0,1,1.3692-1.9768,4.1916,4.1916,0,0,1,2.5683-.683A10.4925,10.4925,0,0,1,8.219,10.38a4.6415,4.6415,0,0,1,1.9937,1.2718,5.928,5.928,0,0,0,4.4213,1.5709,6.42,6.42,0,0,0,3.6684-2.3606c.4432-.4665-.2628-1.1748-.7071-.7071a9.0486,9.0486,0,0,1-1.8822,1.6491,3.3851,3.3851,0,0,1-2.7928.2414,5.63,5.63,0,0,1-2.2125-1.2863A5.9158,5.9158,0,0,0,8.9,9.5354,6.9319,6.9319,0,0,0,6.128,9.3562a14.4037,14.4037,0,0,0-2.564.2651A4.5746,4.5746,0,0,0,.4945,12.8c-.1252.6285.8384.8975.9642.2659Z"/></svg>